<?xml version="1.0" encoding="UTF-8" standalone="no"?>
<!-- Uploaded to: SVG Repo, www.svgrepo.com, Generator: SVG Repo Mixer Tools -->

<svg
   width="30"
   height="30"
   viewBox="0 0 1.8 1.8"
   fill="none"
   version="1.1"
   id="svg310"
   sodipodi:docname="instagram.svg"
   inkscape:version="1.2.2 (732a01da63, 2022-12-09)"
   xmlns:inkscape="http://www.inkscape.org/namespaces/inkscape"
   xmlns:sodipodi="http://sodipodi.sourceforge.net/DTD/sodipodi-0.dtd"
   xmlns="http://www.w3.org/2000/svg"
   xmlns:svg="http://www.w3.org/2000/svg">
  <defs
     id="defs314" />
  <sodipodi:namedview
     id="namedview312"
     pagecolor="#ffffff"
     bordercolor="#000000"
     borderopacity="0.25"
     inkscape:showpageshadow="2"
     inkscape:pageopacity="0.0"
     inkscape:pagecheckerboard="0"
     inkscape:deskcolor="#d1d1d1"
     showgrid="false"
     inkscape:zoom="1.45375"
     inkscape:cx="400"
     inkscape:cy="400.68788"
     inkscape:window-width="2560"
     inkscape:window-height="1368"
     inkscape:window-x="-8"
     inkscape:window-y="-8"
     inkscape:window-maximized="1"
     inkscape:current-layer="svg310" />
  <circle
     cx="0.89999998"
     cy="0.89999998"
     fill="#c13584"
     id="circle302"
     style="stroke-width:0.0450004"
     r="0.89999998" />
  <path
     d="m 0.9,0.457299 c 0.1441845,0 0.1612665,5.49e-4 0.218205,0.003145 0.05265,0.002403 0.081243,0.0112005 0.1002735,0.018594 0.025205,0.009797 0.043191,0.0214965 0.062086,0.040392 0.0189,0.0189 0.0306,0.0368865 0.040396,0.062091 0.00739,0.0190305 0.016191,0.0476235 0.018594,0.100269 0.0026,0.056943 0.00315,0.0740205 0.00315,0.218205 0,0.144189 -5.49e-4,0.1612665 -0.00315,0.2182095 -0.0024,0.05265 -0.0112,0.081239 -0.018594,0.100269 -0.0098,0.025204 -0.021496,0.043195 -0.040392,0.062091 -0.0189,0.018895 -0.036886,0.030596 -0.062091,0.040392 -0.01903,0.0074 -0.047624,0.016191 -0.1002735,0.018594 -0.056929,0.0026 -0.074007,0.00315 -0.218205,0.00315 -0.144198,0 -0.161271,-5.535e-4 -0.218205,-0.00315 C 0.629145,1.337148 0.600552,1.328355 0.5815215,1.320957 0.556317,1.3111605 0.5383305,1.2994605 0.519435,1.280565 0.5005395,1.2616695 0.488835,1.2436785 0.4790385,1.218474 0.471645,1.1994435 0.4628475,1.170855 0.4604445,1.118205 0.457848,1.061262 0.457299,1.0441845 0.457299,0.8999955 c 0,-0.1441845 5.49e-4,-0.161262 0.003145,-0.218205 C 0.4628475,0.629145 0.471645,0.600552 0.4790385,0.5815215 0.488835,0.556317 0.500535,0.5383305 0.519435,0.519435 0.5383305,0.500535 0.556317,0.488835 0.5815215,0.4790385 0.600552,0.471645 0.629145,0.4628475 0.681795,0.4604445 0.7387335,0.457848 0.7558155,0.457299 0.9,0.457299 Z M 0.9,0.36 C 0.753345,0.36 0.7349535,0.360621 0.677358,0.363249 0.619884,0.3658725 0.580626,0.3749985 0.5462775,0.38835 0.510768,0.402147 0.480654,0.4206105 0.4506345,0.4506345 0.4206105,0.480654 0.402147,0.510768 0.38835,0.5462775 0.3749985,0.580626 0.3658725,0.6198795 0.363249,0.677358 0.360621,0.7349535 0.36,0.753345 0.36,0.8999955 0.36,1.046655 0.360621,1.065042 0.363249,1.1226375 0.365873,1.1801155 0.3749985,1.2193695 0.38835,1.253718 0.402147,1.289227 0.4206105,1.319341 0.4506345,1.349365 0.480654,1.379385 0.510768,1.397848 0.5462775,1.411645 0.580626,1.424996 0.619884,1.434122 0.677358,1.436746 0.7349535,1.439376 0.753345,1.439996 0.9,1.439996 c 0.146655,0 0.1650465,-6.21e-4 0.222642,-0.00325 0.057474,-0.00262 0.096732,-0.011749 0.1310805,-0.0251 0.035509,-0.013797 0.065623,-0.032261 0.095643,-0.06228 C 1.379385,1.3193415 1.397853,1.2892275 1.41165,1.253718 1.4250015,1.2193695 1.4341275,1.180116 1.436751,1.1226375 1.439379,1.065042 1.44,1.046655 1.44,0.8999955 1.44,0.753345 1.439379,0.7349535 1.436751,0.677358 1.4341275,0.6198795 1.4250015,0.580626 1.41165,0.5462775 1.397853,0.510768 1.379385,0.480654 1.3493655,0.4506345 1.319346,0.4206105 1.289232,0.402147 1.2537225,0.38835 1.219374,0.3749985 1.180116,0.3658725 1.122642,0.363249 1.0650465,0.360621 1.046655,0.36 0.9,0.36 Z"
     fill="#ffffff"
     id="path304"
     style="stroke-width:0.0450004" />
  <path
     d="m 0.9002655,0.6229485 c -0.1531485,0 -0.2772945,0.124146 -0.2772945,0.2772945 0,0.1531485 0.124146,0.2772945 0.2772945,0.2772945 0.1531485,0 0.277299,-0.124146 0.277299,-0.2772945 0,-0.1531485 -0.1241505,-0.2772945 -0.277299,-0.2772945 z m 0,0.4572945 c -0.0994095,0 -0.18,-0.0805905 -0.18,-0.18 0,-0.0994095 0.0805905,-0.18 0.18,-0.18 0.099414,0 0.18,0.0805905 0.18,0.18 0,0.0994095 -0.080586,0.18 -0.18,0.18 z"
     fill="#ffffff"
     id="path306"
     style="stroke-width:0.0450004" />
  <path
     d="m 1.2532815,0.6118335 c 0,0.035784 -0.029011,0.0648 -0.0648,0.0648 -0.035789,0 -0.0648,-0.029016 -0.0648,-0.0648 0,-0.0357885 0.029011,-0.0648045 0.0648,-0.0648045 0.035789,0 0.0648,0.029016 0.0648,0.0648045 z"
     fill="#ffffff"
     id="path308"
     style="stroke-width:0.0450004" />
</svg>
