<?xml version="1.0" standalone="no"?>
<!DOCTYPE svg PUBLIC "-//W3C//DTD SVG 20010904//EN"
 "http://www.w3.org/TR/2001/REC-SVG-20010904/DTD/svg10.dtd">
<svg version="1.0" xmlns="http://www.w3.org/2000/svg"
 width="270.000000pt" height="270.000000pt" viewBox="0 0 270.000000 270.000000"
 preserveAspectRatio="xMidYMid meet">

<g transform="translate(0.000000,270.000000) scale(0.100000,-0.100000)"
fill="#000000" stroke="none">
<path d="M1107 2327 l-106 -144 -3 -97 -3 -98 -204 -94 c-112 -52 -206 -92
-209 -90 -2 3 -11 35 -18 72 -8 37 -16 69 -18 71 -2 2 -115 2 -252 1 l-250 -3
93 -225 c51 -124 94 -229 96 -235 2 -5 37 -3 88 7 50 10 86 13 90 7 3 -5 22
-103 42 -217 21 -114 52 -289 70 -390 l34 -184 -61 4 -61 3 -32 -220 c-17
-121 -32 -231 -32 -245 l-1 -26 228 27 c125 16 237 28 250 28 21 1 22 5 22 71
l0 70 345 0 345 0 0 -70 c0 -66 1 -70 23 -71 12 0 124 -12 250 -28 l227 -27
-1 26 c0 14 -15 124 -32 245 l-32 220 -57 -3 c-32 -2 -58 0 -58 5 0 4 7 43 15
86 19 101 20 97 -15 97 -37 0 -43 -13 -65 -140 -9 -52 -18 -103 -21 -113 -5
-17 0 -17 68 -11 l74 6 18 -133 c10 -74 21 -149 23 -167 l6 -32 -44 1 c-24 0
-102 8 -174 18 l-130 17 3 72 3 72 -426 0 -426 0 3 -72 3 -72 -130 -17 c-71
-10 -150 -18 -174 -18 l-44 -1 6 32 c2 18 13 93 23 167 l18 133 73 -6 c40 -4
73 -3 73 1 0 17 -170 947 -174 950 -2 3 -43 -3 -91 -13 -51 -10 -90 -13 -95
-8 -7 8 -130 300 -130 310 0 2 76 4 170 4 194 0 169 14 193 -110 7 -36 18 -65
24 -65 6 0 128 54 272 120 l261 120 0 106 0 105 71 97 c39 53 73 97 77 96 4 0
36 -41 72 -90 l65 -91 5 -111 5 -112 268 -123 c148 -69 270 -122 272 -120 3 2
12 40 21 84 9 43 19 82 23 87 4 4 82 6 173 5 l165 -3 -63 -155 c-34 -85 -67
-156 -73 -158 -6 -2 -45 4 -87 12 -42 9 -81 16 -88 16 -7 0 -19 -42 -30 -107
-9 -60 -20 -118 -23 -130 -5 -21 -1 -23 30 -23 34 0 36 2 46 50 6 27 14 68 17
91 6 35 10 40 28 35 81 -19 148 -28 156 -20 8 9 190 447 190 459 0 3 -114 4
-252 3 l-253 -3 -12 -69 c-7 -38 -15 -71 -17 -73 -2 -3 -99 39 -215 93 l-211
97 0 96 0 97 -105 142 c-58 78 -106 142 -108 142 -2 0 -52 -65 -110 -143z"/>
<path d="M780 1475 l0 -136 59 41 c50 33 60 45 63 72 l3 33 123 3 122 3 0
-368 0 -367 -47 -48 -47 -48 158 0 157 0 -19 28 c-11 15 -29 36 -41 46 -21 19
-21 25 -21 388 l0 369 123 -3 122 -3 3 -35 c2 -27 11 -40 35 -56 18 -11 44
-29 60 -38 l27 -18 0 136 0 136 -440 0 -440 0 0 -135z"/>
<path d="M1473 1218 c-46 -12 -73 -51 -73 -105 0 -38 5 -50 34 -79 26 -26 42
-34 71 -34 29 0 45 8 71 34 29 29 34 41 34 79 0 77 -63 125 -137 105z m67 -58
c24 -24 26 -72 4 -94 -35 -35 -94 -6 -94 46 0 30 30 68 55 68 8 0 24 -9 35
-20z"/>
<path d="M2312 1219 c-41 -12 -72 -60 -72 -112 0 -31 7 -46 34 -73 36 -36 78
-44 130 -24 23 8 26 15 26 60 l0 50 -45 0 c-38 0 -45 -3 -45 -20 0 -14 7 -20
21 -20 14 0 19 -5 17 -17 -5 -26 -31 -27 -61 -3 -33 26 -36 71 -7 100 21 21
74 27 85 10 11 -18 25 -10 25 14 0 18 -8 27 -31 35 -36 12 -33 12 -77 0z"/>
<path d="M1650 1116 c0 -106 0 -106 24 -106 22 0 25 5 28 42 l3 42 28 -42 c20
-31 34 -42 52 -42 31 0 31 5 -1 47 -25 33 -25 35 -9 53 22 24 23 67 2 88 -9 9
-40 17 -71 20 l-56 4 0 -106z m98 40 c2 -10 -2 -22 -10 -27 -25 -17 -38 -9
-38 22 0 26 3 30 22 27 13 -2 24 -11 26 -22z"/>
<path d="M1820 1195 c0 -22 4 -25 35 -25 l35 0 0 -80 c0 -76 1 -80 23 -80 21
0 22 3 19 80 l-4 80 36 0 c32 0 36 3 36 25 0 25 -1 25 -90 25 -89 0 -90 0 -90
-25z"/>
<path d="M2030 1135 c0 -78 2 -88 25 -110 16 -17 35 -25 60 -25 25 0 44 8 60
25 23 22 25 32 25 110 0 78 -2 85 -20 85 -18 0 -20 -7 -20 -72 0 -77 -5 -91
-32 -101 -35 -13 -52 17 -56 97 -4 67 -7 76 -23 76 -17 0 -19 -8 -19 -85z"/>
<path d="M2500 1124 c-25 -53 -46 -100 -48 -105 -2 -5 7 -9 21 -9 14 0 27 7
31 15 3 10 19 15 46 15 27 0 43 -5 46 -15 6 -14 54 -22 54 -9 0 12 -93 204
-99 204 -3 -1 -26 -44 -51 -96z m64 -16 c9 -35 8 -38 -19 -38 -29 0 -29 0 -13
35 14 31 24 32 32 3z"/>
</g>
</svg>
